<svg xmlns="http://www.w3.org/2000/svg" viewBox="0 0 1200 630">
  <defs>
    <linearGradient id="nm" x1="0" y1="0" x2="1" y2="0">
      <stop offset="0" stop-color="#5B8CFF" />
      <stop offset="1" stop-color="#A78BFA" />
    </linearGradient>
    <radialGradient id="glow" cx="50%" cy="36%" r="62%">
      <stop offset="0" stop-color="#8B5CF6" stop-opacity="0.30" />
      <stop offset="58%" stop-color="#3BA0FF" stop-opacity="0.06" />
      <stop offset="100%" stop-color="#08080C" stop-opacity="0" />
    </radialGradient>
  </defs>
  <rect width="1200" height="630" fill="#08080C" />
  <rect width="1200" height="630" fill="url(#glow)" />
  <g transform="translate(456 150)" fill="url(#nm)">
    <rect x="5" y="4" width="6" height="52" rx="3" />
    <rect x="22" y="14.5" width="6" height="31" rx="3" />
    <rect x="39" y="8" width="6" height="44" rx="3" />
    <rect x="56" y="20" width="6" height="20" rx="3" />
    <rect x="73" y="16" width="6" height="28" rx="3" />
    <rect x="90" y="24" width="6" height="12" rx="3" />
    <rect x="107" y="22" width="6" height="16" rx="3" />
    <rect x="124" y="27" width="6" height="6" rx="3" />
    <rect x="150" y="27" width="138" height="6" rx="3" />
  </g>
  <text x="600" y="378" text-anchor="middle" font-family="'Space Grotesk',Inter,Arial,sans-serif" font-weight="700" font-size="124" letter-spacing="-5" fill="#F4F4F8">Noise<tspan fill="url(#nm)">.</tspan></text>
  <text x="600" y="448" text-anchor="middle" font-family="Inter,Arial,sans-serif" font-weight="500" font-size="36" fill="#A8A8B8">Your communication finally has a memory.</text>
  <text x="600" y="500" text-anchor="middle" font-family="Inter,Arial,sans-serif" font-weight="400" font-size="26" fill="#6E6E80">A memory &amp; intelligence layer on every channel you communicate through.</text>
</svg>
